<svg data-v-423bf9ae="" xmlns="http://www.w3.org/2000/svg" viewBox="0 0 317.0880019755768 60" class="font"><!----><!----><!----><g data-v-423bf9ae="" id="1d0c6175-6874-408e-9654-18663344b76e" fill="rgb(168, 85, 247)" transform="matrix(4.344677937748613,0,0,4.344677937748613,-1.0427190555559491,-13.425053739480774)"><path d="M0.24 12.60C1.40 13.55 3.08 14.17 4.72 14.17C6.90 14.17 8.64 13.13 8.64 11.17C8.64 7.63 3.46 8.60 3.46 6.90C3.46 6.43 3.89 6.19 4.54 6.19C5.33 6.19 6.64 6.61 7.67 7.21L8.61 5.26C7.60 4.61 6.16 4.17 4.75 4.17C2.39 4.17 0.84 5.32 0.84 7.13C0.84 10.60 6.02 9.56 6.02 11.30C6.02 11.86 5.53 12.15 4.75 12.15C3.72 12.15 2.21 11.56 1.20 10.68ZM9.28 8.47L10.33 8.47L10.33 11.80C10.33 13.37 11.38 14.20 12.84 14.20C13.57 14.20 14.31 14 14.85 13.68L14.38 12.00C14.01 12.15 13.69 12.25 13.44 12.25C12.99 12.26 12.74 12.01 12.74 11.42L12.74 8.47L14.71 8.47L14.71 6.87L12.74 6.87L12.74 4.79L10.33 4.79L10.33 6.89L9.28 6.89ZM16.07 14.08L18.49 14.08L18.49 10.21C18.62 9.14 19.54 8.48 20.94 8.61L20.94 6.43C19.87 6.44 19.01 6.93 18.49 7.81L18.49 6.54L16.07 6.54ZM21.46 11.83C21.46 13.22 22.44 14.20 24.05 14.20C25.07 14.20 25.87 13.86 26.36 13.22L26.36 14.08L28.73 14.08L28.73 9.16C28.71 7.45 27.51 6.43 25.44 6.43C24.18 6.43 23.11 6.73 21.94 7.28L22.62 8.88C23.42 8.47 24.25 8.25 24.88 8.25C25.86 8.25 26.35 8.69 26.35 9.44L26.35 9.55L24.36 9.55C22.48 9.56 21.46 10.40 21.46 11.83ZM23.73 11.66C23.73 11.10 24.09 10.85 24.82 10.85L26.35 10.85L26.35 11.52C26.19 12.14 25.55 12.56 24.79 12.56C24.12 12.56 23.73 12.21 23.73 11.66ZM29.75 8.47L30.80 8.47L30.80 11.80C30.80 13.37 31.85 14.20 33.31 14.20C34.03 14.20 34.78 14 35.32 13.68L34.85 12.00C34.48 12.15 34.16 12.25 33.91 12.25C33.46 12.26 33.21 12.01 33.21 11.42L33.21 8.47L35.18 8.47L35.18 6.87L33.21 6.87L33.21 4.79L30.80 4.79L30.80 6.89L29.75 6.89ZM35.95 11.83C35.95 13.22 36.93 14.20 38.54 14.20C39.56 14.20 40.36 13.86 40.85 13.22L40.85 14.08L43.22 14.08L43.22 9.16C43.20 7.45 42 6.43 39.93 6.43C38.67 6.43 37.60 6.73 36.43 7.28L37.11 8.88C37.91 8.47 38.74 8.25 39.37 8.25C40.35 8.25 40.84 8.69 40.84 9.44L40.84 9.55L38.85 9.55C36.97 9.56 35.95 10.40 35.95 11.83ZM38.22 11.66C38.22 11.10 38.58 10.85 39.31 10.85L40.84 10.85L40.84 11.52C40.68 12.14 40.04 12.56 39.28 12.56C38.61 12.56 38.22 12.21 38.22 11.66ZM44.32 10.02C44.32 12.22 45.67 13.68 47.57 13.68C48.51 13.68 49.25 13.31 49.74 12.67L49.74 13.47C49.74 14.41 49.04 15.02 47.88 15.02C47.07 15.02 46.23 14.74 45.54 14.27L44.70 15.90C45.56 16.48 46.75 16.90 48.06 16.90C50.50 16.90 52.15 15.54 52.15 13.40L52.15 6.54L49.74 6.54L49.74 7.46C49.24 6.80 48.48 6.44 47.52 6.45C45.63 6.45 44.32 7.88 44.32 10.02ZM46.58 10.09C46.58 9.00 47.22 8.25 48.17 8.25C49.11 8.25 49.74 8.99 49.74 10.09C49.74 11.17 49.11 11.93 48.17 11.93C47.22 11.93 46.58 11.17 46.58 10.09ZM53.94 4.37C53.94 5.12 54.47 5.66 55.22 5.66C55.96 5.66 56.49 5.12 56.49 4.37C56.49 3.63 55.96 3.09 55.22 3.09C54.47 3.09 53.94 3.63 53.94 4.37ZM54.00 14.08L56.41 14.08L56.41 6.54L54.00 6.54ZM57.86 14.08L64.72 14.08L64.72 12.26L60.90 12.26L64.60 7.99L64.60 6.54L58.00 6.54L58.00 8.36L61.57 8.36L57.86 12.63ZM65.46 10.33C65.46 12.63 67.00 14.17 69.47 14.17C70.85 14.17 71.99 13.68 72.76 12.84L71.48 11.59C70.98 12.10 70.34 12.36 69.68 12.36C68.78 12.36 68.14 11.86 67.90 10.96L73.21 10.96C73.37 8.20 72.06 6.45 69.40 6.45C67.06 6.45 65.46 7.99 65.46 10.33ZM67.86 9.66C68.01 8.75 68.59 8.13 69.43 8.13C70.29 8.13 70.88 8.74 70.88 9.66Z"></path></g><!----><!----></svg>